<?xml version="1.0" standalone="no"?>
<!DOCTYPE svg PUBLIC "-//W3C//DTD SVG 1.1//EN" "http://www.w3.org/Graphics/SVG/1.1/DTD/svg11.dtd" >
<!--
2013-9-30: Created.
-->
<svg>
<metadata>
Created by iconfont
</metadata>
<defs>

<font id="iconfont" horiz-adv-x="1024" >
  <font-face
    font-family="iconfont"
    font-weight="500"
    font-stretch="normal"
    units-per-em="1024"
    ascent="896"
    descent="-128"
  />
    <missing-glyph />
    
    <glyph glyph-name="close" unicode="&#58973;" d="M540.98944 384.233472l369.568768 369.568768c7.99744 7.998464 7.99744 20.965376 0 28.962816-7.998464 7.998464-20.9664 7.998464-28.96384 0L512.026624 413.197312 142.488576 782.733312c-7.998464 7.998464-20.965376 7.998464-28.962816 0s-7.998464-20.965376 0-28.962816l369.536-369.536L113.55648 14.727168000000006c-7.998464-7.998464-7.998464-20.9664 0-28.96384 3.99872-3.99872 9.239552-5.997568 14.481408-5.997568s10.482688 1.998848 14.481408 5.997568l369.507328 369.507328 369.539072-369.539072c3.99872-3.99872 9.240576-5.997568 14.482432-5.997568s10.482688 1.998848 14.482432 5.997568c7.99744 7.998464 7.99744 20.9664 0 28.96384L540.98944 384.233472z"  horiz-adv-x="1024" />

    
    <glyph glyph-name="wode" unicode="&#58895;" d="M647.876923 303.261538C732.553846 350.523077 787.692308 439.138462 787.692308 541.538462c0 151.630769-124.061538 275.692308-275.692308 275.692308s-275.692308-124.061538-275.692308-275.692308c0-102.4 55.138462-191.015385 137.846154-238.276923C220.553846 252.061538 106.338462 116.184615 82.707692-49.230769l39.384615 0c25.6 163.446154 149.661538 293.415385 311.138462 326.892308 25.6-7.876923 51.2-11.815385 78.769231-11.815385s53.169231 3.938462 78.769231 11.815385c161.476923-33.476923 285.538462-163.446154 311.138462-326.892308l39.384615 0C917.661538 116.184615 803.446154 252.061538 647.876923 303.261538zM275.692308 541.538462c0 129.969231 106.338462 236.307692 236.307692 236.307692s236.307692-106.338462 236.307692-236.307692c0-129.969231-106.338462-236.307692-236.307692-236.307692S275.692308 411.569231 275.692308 541.538462z"  horiz-adv-x="1024" />

    
    <glyph glyph-name="wechatpay" unicode="&#58905;" d="M843.127467 630.3743999999999l-329.5232-381.44c-7.3728-8.533333-17.92-13.687467-29.184-14.336-0.750933-0.034133-1.536-0.068267-2.321067-0.068267-10.478933 0-20.5824 3.925333-28.296533 11.0592l-194.286933 179.950933c-16.827733 15.598933-17.851733 41.949867-2.2528 58.845867 15.633067 16.827733 41.984 17.851733 58.845867 2.218667l162.645333-150.664533 295.6288 342.186667c-69.768533 38.877867-154.965333 61.917867-247.1936 61.917867-235.656533 0-426.666667-149.060267-426.666667-333.0048 0-83.5584 39.424-159.9488 104.5504-218.4192 28.945067-25.975467 21.1968-165.751467 34.167467-165.717333 0 0 77.073067 94.549333 82.397867 92.2624 60.928-26.2144 130.9696-41.096533 205.5168-41.096533 235.656533 0 426.666667 149.060267 426.666667 333.0048C953.856 493.124267 911.701333 571.255467 843.127467 630.3743999999999z"  horiz-adv-x="1024" />

    
    <glyph glyph-name="paid" unicode="&#58983;" d="M672.838152 394.804067c11.30344 0 20.466124 9.162684 20.466124 20.466124s-9.162684 20.466124-20.466124 20.466124L532.388353 435.736315l0 41.201377 110.905926 107.888196c8.102538 7.881504 8.281617 20.838607 0.400113 28.941146-7.881504 8.101515-20.837584 8.280594-28.940123 0.399089L511.781012 513.9967260000001l-106.022709 101.107769c-8.18031 7.800663-21.135366 7.493671-28.935006-0.686638-7.800663-8.18031-7.493671-21.134343 0.686638-28.935006l113.946168-108.663862 0-41.081651-140.448776 0c-11.30344 0-20.466124-9.162684-20.466124-20.466124s9.162684-20.466124 20.466124-20.466124l140.448776 0 0-67.994604L370.921891 326.81048599999997c-11.30344 0-20.466124-9.162684-20.466124-20.466124s9.162684-20.466124 20.466124-20.466124l120.534214 0 0-95.042633c0-11.30344 9.162684-20.466124 20.466124-20.466124s20.466124 9.162684 20.466124 20.466124l0 95.042633 118.143771 0c11.30344 0 20.466124 9.162684 20.466124 20.466124s-9.162684 20.466124-20.466124 20.466124L532.388353 326.81048599999997l0 67.994604L672.838152 394.80509zM649.251967 52.50814300000002c-48.75747-21.376866-100.707656-32.214702-154.404626-32.214702-212.252125 0-384.932999 172.679851-384.932999 384.932999 0 145.906068 80.908728 277.55441 211.152071 343.570963 54.149271 27.446096 112.617917 41.362037 173.780929 41.362037 212.252125 0 384.932999-172.680874 384.932999-384.932999 0-17.276479-1.162476-34.684964-3.453658-51.741431-1.505283-11.202133 6.356778-21.50478 17.558911-23.00904 11.205203-1.505283 21.50478 6.356778 23.00904 17.558911 2.533706 18.857487 3.816932 38.099736 3.816932 57.19156 0 57.482179-11.262508 113.25646-33.475416 165.772534-21.449521 50.714032-52.153824 96.256274-91.257423 135.359874-39.104623 39.1036-84.645842 69.807902-135.359874 91.258447-52.516074 22.211884-108.289332 33.474392-165.772534 33.474392-67.653843 0-132.348284-15.403828-192.286398-45.784766-69.143777-35.047214-127.494743-88.335884-168.744215-154.107867-42.415019-67.629283-64.833611-145.769968-64.833611-225.972615 0-57.482179 11.262508-113.255437 33.474392-165.772534 21.450545-50.715055 52.153824-96.255251 91.258447-135.359874 39.1036-39.1036 84.645842-69.807902 135.359874-91.257423 52.516074-22.212908 108.289332-33.475416 165.772534-33.475416 59.389622 0 116.868731 11.998265 170.839947 35.659151 10.351766 4.539386 15.065114 16.609283 10.526751 26.962072C671.674653 52.332134999999994 659.605779 57.04855299999997 649.251967 52.50814300000002zM952.292841 297.44671500000004c-7.990998 7.993045-20.951171 7.993045-28.943193 0L729.315444 103.41046400000005l-84.663238 88.587618c-7.809873 8.170077-20.763906 8.464789-28.936029 0.655939-8.1711-7.809873-8.464789-20.764929-0.655939-28.936029l99.127671-103.722316c3.806699-3.982708 9.05626-6.261611 14.563694-6.325056 0.077771-0.001023 0.154519-0.001023 0.232291-0.001023 5.424546 0 10.632151 2.15406 14.47262 5.994528l208.838376 208.839399C960.285886 276.49452099999996 960.285886 289.45367 952.292841 297.44671500000004z"  horiz-adv-x="1024" />

    
    <glyph glyph-name="order" unicode="&#59027;" d="M739.5 841.6c38.5 0 69.8-31.1 69.8-69.4v-323.8L425.9 55.10000000000002h10.9-279.4c-38.5 0-69.7 31-69.7 69.2V841.6H64.4h675.1zM41.1 887.8v-763.6c0-63.8 52.1-115.4 116.3-115.4h289.2l6.8 6.9 395.7 400.2 6.7 6.7V772.2C855.8 836 803.7 887.8 739.5 887.8H41.1zM785.5 261.6l87.3-87.3 17.9-19.2 95.9 96.6-125.1 125.8-94.1-98.7 18.1-17.2z m136.9-6.6l-34.8-35-58.4 56.3 33.6 36.5 59.6-57.8zM779.7 292.70000000000005L527.3 40.39999999999998l-4.9-4.9-1.4-6.8L498.1-86l-6.7-33.7 33.7 6.7 114.7 22.9 6.8 1.4 4.9 4.9 252.4 252.4 16.2 16.2-16.2 16.2-91.8 91.8-16.2 16.2-16.2-16.3z m15.9-49.1l59.7-58.9-232.4-229.8-74.4-16.2 18.5 76.5 228.6 228.4zM171.6 501.9h532.3c12.9 0 23.3 9.6 23.3 21.4 0 11.8-10.4 21.4-23.3 21.4H171.6c-12.9 0-23.3-9.6-23.3-21.4 0-11.8 10.4-21.4 23.3-21.4zM171.6 652h532.3c12.9 0 23.3 9.6 23.3 21.4 0 11.8-10.4 21.4-23.3 21.4H171.6c-12.9 0-23.3-9.6-23.3-21.4 0-11.8 10.4-21.4 23.3-21.4z"  horiz-adv-x="1024" />

    
    <glyph glyph-name="empty-shopping-cart" unicode="&#58899;" d="M852.688613 33.818831000000046H422.575347c-87.749249 0-162.351237 66.946325-177.429866 159.209855L165.447475 730.62373c-10.354923 77.347787-57.289486 125.236399-122.513868 125.236399a20.058301 20.058301 0 0 0 0 40.116602c85.561917 0 149.250513-62.711277 162.258158-159.768324l79.628197-537.013306c12.007057-73.624669 68.691537-125.282938 137.778655-125.282938H852.665344a20.011762 20.011762 0 1 0 0.023269-40.093332zM848.895686 181.30086300000005H386.135325a20.011762 20.011762 0 1 0 0 40.070063h462.713822c4.048891 0 13.496305 0 21.454471 26.410872l90.588127 334.568737a20.709847 20.709847 0 0 1-20.500421 18.406167H201.980575a20.035031 20.035031 0 0 0 0 40.093332H940.391324a60.803179 60.803179 0 0 0 60.710101-60.710101l-0.721354-5.235635-91.518907-338.1057c-13.822077-46.003783-40.232949-55.497735-59.965478-55.497735zM355.652292-45.250899000000004a81.350139 81.350139 0 1 1 162.723548 0 81.350139 81.350139 0 1 1-162.723548 0zM650.523278-45.250899000000004a81.373409 81.373409 0 1 1 162.723549 0.02327 81.373409 81.373409 0 0 1-162.723549-0.02327z"  horiz-adv-x="1024" />

    
    <glyph glyph-name="img" unicode="&#58990;" d="M1019.441-12.934999999999945c0-32.182-26.087-58.268-58.271-58.268H63.819c-32.182 0-58.27 26.086-58.27 58.268v792.47c0 32.182 26.088 58.269 58.27 58.269h897.352c32.183 0 58.271-26.088 58.271-58.269v-792.47h-0.001z m-44.566 765.038c0 24.322-19.714 44.036-44.036 44.036H94.152c-24.319 0-44.036-19.714-44.036-44.036v-737.604c0-24.319 19.716-44.035 44.036-44.035h836.685c24.322 0 44.038 19.716 44.038 44.035V752.1030000000001zM259.392 682.8c-53.842 0-97.49-43.647-97.49-97.49 0-53.841 43.647-97.49 97.49-97.49 53.842 0 97.49 43.649 97.49 97.49-0.001 53.842-43.648 97.49-97.49 97.49z m52.923-97.49c0-29.228-23.695-52.923-52.923-52.923-29.229 0-52.923 23.695-52.923 52.923 0 29.229 23.694 52.923 52.923 52.923 29.228 0 52.923-23.694 52.923-52.923zM120.309 162.17899999999997l187.737 141.499 101.947-104.732 252.916 253.752 237.318-238.153 30.082 33.425-266.844 267.679-253.473-250.967-98.047 98.047L94.682 198.94600000000003l25.627-36.767z m795.252 16.713h-353.52v-44.567h353.52v44.567z m0-101.762H360.023v-44.567h555.538V77.13z"  horiz-adv-x="1024" />

    
    <glyph glyph-name="drop-down" unicode="&#59037;" d="M900.58 602.027a31.289 31.289 0 0 1-45.71 0L512 239.559 168.932 602.027a31.289 31.289 0 0 1-45.71 0 35.584 35.584 0 0 1 0-48.356l365.766-386.645a31.289 31.289 0 0 1 45.74 0L900.58 553.7a35.47 35.47 0 0 1 0 48.355z"  horiz-adv-x="1024" />

    
    <glyph glyph-name="cx" unicode="&#58880;" d="M382.656 848.288c210.72 19.392 380.736-143.872 396.224-333.76 17.44-212.16-141.92-380.736-333.248-396.704-212.64-17.92-380.256 141.44-397.184 332.768-8.224 93.984 25.664 209.728 90.112 274.656 16 16.48 27.136 29.056 46.976 45.056 54.24 43.584 122.56 71.2 197.152 77.984zM724.16 209.856c2.432 3.392 8.704 10.656 11.616 14.528 4.832 5.824 6.784 8.224 11.136 13.568 7.264 10.656 13.568 19.36 20.352 31.008 73.152 119.648 79.936 277.056 14.048 402.048-27.616 53.76-47.456 75.552-87.2 114.304-153.568 151.616-420.448 146.784-574.976-12.096-110.432-113.344-156.448-294.016-84.768-454.368 22.752-51.84 44.576-82.816 80.416-120.608 115.296-121.088 293.056-162.752 450.976-99.776a431.328 431.328 0 0 1 66.848 33.92c28.096 16.96 50.368 38.272 57.632 43.104 9.216-4.352 105.12-105.12 120.128-121.088 6.784-6.784 13.568-11.616 20.352-18.4l138.048-141.92c8.704-8.704 30.048-35.36 48.928-13.568 18.4 20.832-8.224 38.752-18.88 49.888l-117.696 120.608c-7.264 7.744-14.528 12.608-21.312 19.872l-58.112 59.584c-25.664 26.656-51.36 53.76-77.504 79.456z"  horiz-adv-x="1024" />

    
    <glyph glyph-name="pay" unicode="&#59114;" d="M639.78125001 293.8125H527.5625V384.9375h112.21875001c18.09375001 0 32.71875001 1.875 32.71874999 19.96875001s-14.625 19.96875001-32.71875001 19.96874999H541.0625l112.3125 174.375c6 9.28125001 3.28125001 21.75-6 27.75-9.28125001 6-21.75 3.28125001-27.75-6l-109.6875-170.25-109.6875 170.25c-6 9.28125001-18.46875001 12-27.75 6-9.28125001-6-12-18.46875001-6-27.75l112.3125-174.375h-101.25c-18.09375001 0-32.71875001-1.875-32.71875001-19.96875001s14.625-19.96875001 32.71875001-19.96874999h112.21875001v-91.125H377.5625c-18.09375001 0-32.8125-1.875-32.8125-19.96875001s14.71875001-19.96875001 32.8125-19.96874999h112.21875001v-111.1875c0-18.09375001 0.84375001-32.8125 18.93749998-32.8125s18.9375 14.71875001 18.9375 32.8125V253.875h112.21875001c18.09375001 0 32.8125 1.875 32.8125 19.96875001-0.09375001 18.09375001-14.8125 19.96875001-32.90625001 19.96874999zM899.46875001 547.5C878.28125001 597.65625001 847.8125 642.75 809.1875 681.375c-38.71875001 38.625-83.71875001 69-133.78125001 90.1875-52.03125001 22.03125001-107.15625001 33.1875-164.06249998 33.1875-56.8125 0-112.03125001-11.0625-163.96875001-33.09375001-50.0625-21.1875-95.53125001-51.84375001-133.875-90.18749998-38.625-38.71875001-69-83.8125-90.28125001-133.96875001C101.28124999 495.5625 90.125 440.34375001 90.125 383.53124999c0-56.8125 11.15625001-112.03125001 33.09375001-163.96874999 21.1875-50.25 51.5625-95.15625001 90.18749998-133.78125001 38.34375001-38.53125001 83.8125-69.1875 133.875-90.37499998 51.9375-21.9375 107.15625001-33.09375001 163.96875001-33.09375001 56.8125 0 111.9375 11.15625001 163.96875001 33.09375001 50.15625001 21.28125001 95.0625 51.65625001 133.78124999 90.375 38.71875001 38.71875001 69.09375001 83.625 90.28125001 133.78124999 21.9375 51.9375 33.09375001 107.15625001 33.09374999 163.96875001 0.1875 56.8125-10.875 112.03125001-32.90625001 163.96874999z m-388.12500002-539.25c-200.53125001 0-375.46875001 174.75-375.46874999 375.28125001s174.84375001 375.375 375.46875001 375.37499998c200.53125001 0 375.375-174.84375001 375.37499998-375.37499998 0-200.53125001-174.84375001-375.28125001-375.37499998-375.28125001z"  horiz-adv-x="1024" />

    
    <glyph glyph-name="alipay" unicode="&#58897;" d="M415.46432 727.311l-2.069-67.62H140.84832v-51.747h275.994v-89.703H189.14432v-48.988l231.143 2.074 231.833 2.068-4.142-16.558c-10.347-40.023-54.507-146.97-62.786-150.41-4.829-1.383-38.641 6.21-76.59 17.25-115.231 35.184-172.498 45.536-250.466 45.536-79.35-0.686-131.092-15.18-180.777-50.37-96.594-69.002-104.187-204.237-14.49-279.44 95.217-80.04 251.152-87.628 392.602-18.631 50.366 24.15 140.754 89.702 171.11 123.51L639.00832 158.77200000000005l39.332-19.319c39.332-20.009 282.204-132.48 323.6-149.729l22.076-9.661V157.389l-60.032 15.872c-54.507 14.495-193.884 57.958-238.735 75.213l-17.25 6.901 22.77 46.92c24.156 48.292 72.453 184.914 72.453 204.923 0 9.661-13.799 11.039-120.75 11.039h-120.74v89.687H851.52832V653.48c0 2.068-65.552 3.45-144.901 2.76l-144.891-0.686V794.24h-144.21l-2.063-66.929zM388.54832 277.443c35.88-12.427 83.492-31.74 105.569-43.47l40.013-21.396-22.078-27.597c-12.416-15.18-40.704-41.4-64.169-58.65-78.658-58.644-151.792-81.412-245.632-75.893-97.976 5.52-150.415 45.537-156.626 120.054-4.142 46.228 6.211 72.448 37.955 96.599 40.018 30.362 72.443 37.253 160.763 35.185 67.62-2.064 89.011-6.2 144.205-24.832z"  horiz-adv-x="1024" />

    
    <glyph glyph-name="checked" unicode="&#59005;" d="M512 828.8c246.4 0 444.8-198.4 444.8-444.8S758.4-60.799999999999955 512-60.799999999999955 67.2 137.60000000000002 67.2 384 265.6 828.8 512 828.8m0 64C230.4 892.8 3.2 665.6 3.2 384S230.4-124.79999999999995 512-124.79999999999995 1020.8 102.39999999999998 1020.8 384 793.6 892.8 512 892.8zM400 140.79999999999995c-12.8 12.8-12.8 32 0 44.8L793.6 579.2c12.8 12.8 32 12.8 44.8 0 12.8-12.8 12.8-32 0-44.8L444.8 140.79999999999995c-12.8-12.8-32-12.8-44.8 0zM444.8 140.79999999999995c-12.8-12.8-32-12.8-44.8 0l-214.4 214.4c-12.8 12.8-12.8 32 0 44.8 12.8 12.8 32 12.8 44.8 0l214.4-214.4c12.8-12.8 12.8-32 0-44.8z"  horiz-adv-x="1024" />

    
    <glyph glyph-name="jiaju" unicode="&#59111;" d="M1015 63.799999999999955c-0.3 2.1-0.7 4.1-1.3 6-21.7 99.8-33 205.6-33.1 314.2 0 108.6 11.3 214.4 33.1 314.2 0.6 1.9 1.1 4 1.3 6 0 0.2 0 0.5 0.1 0.7 0.3 1.8 0.4 3.7 0.4 5.6 0 19.3-15.7 35-35 35-3.9 0-7.6-0.6-11.1-1.8h-0.1c-1.3-0.4-2.6-0.8-3.8-1.3-135-46.7-290.7-71.7-453.5-71.7s-318.6 25-453.5 71.7c-1.2 0.5-2.5 0.9-3.8 1.3h-0.1c-3.5 1.2-7.2 1.8-11.1 1.8-19.3 0-35-15.7-35-35 0-1.9 0.2-3.7 0.4-5.6 0-0.2 0-0.5 0.1-0.7 0.3-2.1 0.7-4.1 1.3-6 21.7-99.8 33-205.6 33.1-314.2 0-108.6-11.3-214.4-33.1-314.2-0.6-1.9-1.1-4-1.3-6 0-0.2 0-0.5-0.1-0.7-0.3-1.8-0.4-3.7-0.4-5.6 0-19.3 15.7-35 35-35 3.9 0 7.6 0.6 11.1 1.8h0.1c1.3 0.4 2.6 0.8 3.8 1.3 135 46.7 290.7 71.7 453.5 71.7s318.6-25 453.5-71.7c1.2-0.5 2.5-0.9 3.8-1.3h0.1c3.5-1.2 7.2-1.8 11.1-1.8 19.3 0 35 15.7 35 35 0 1.9-0.2 3.7-0.4 5.6-0.1 0.3-0.1 0.5-0.1 0.7z m-150.5 49.3c-27.5 6.6-55.5 12.4-83.8 17.4-86.5 15.2-176.5 22.9-268.5 22.9h-0.4c-92 0-182-7.7-268.5-22.9-28.3-5-56.3-10.8-83.8-17.4-30.3-7.2-59.7-15.4-88.2-24.3 7.8 39.8 14 80.2 18.5 121.2 6.3 56.9 9.5 114.9 9.6 173.6v0.4 0.4c0 58.7-3.2 116.7-9.6 173.6-4.6 41-10.7 81.4-18.5 121.2 28.5-9 57.9-17.1 88.2-24.3 27.5-6.6 55.5-12.4 83.8-17.4 86.5-15.2 176.5-22.9 268.5-22.9h0.4c92 0 182 7.7 268.5 22.9 28.3 5 56.3 10.8 83.8 17.4 30.3 7.2 59.7 15.4 88.2 24.3-7.8-39.8-14-80.2-18.5-121.2-6.3-56.9-9.5-114.9-9.6-173.6v-0.8c0-58.7 3.2-116.7 9.6-173.6 4.6-41 10.7-81.4 18.5-121.2-28.5 9-57.9 17.1-88.2 24.3zM860.1 389.7c-1.3-0.9-2.4-1.8-3.5-2.9-20.2-16.4-41.8-31.9-64.6-46.3-21.6-13.6-43.6-25.9-65.8-36.7-1.2-0.5-2.4-1.1-3.6-1.7-0.3-0.2-0.6-0.4-1-0.6-3.2-2-5.8-4.6-7.9-7.5-6.4-9-7.1-21.3-0.8-31.2 6.3-9.9 17.7-14.5 28.6-12.6 2.1 0.4 4.2 1 6.2 1.9l1.8 0.9c24.5 11.8 48.7 25.3 72.4 40.2 25 15.8 48.7 32.9 70.9 51.1 0.6 0.5 1.2 1 1.9 1.5 0.9 0.8 1.7 1.6 2.5 2.5 7.9 9.1 9.3 22.7 2.6 33.4-6.8 10.7-19.7 15.3-31.3 12-2.6-0.7-5-1.8-7.4-3.3-0.3-0.3-0.6-0.5-1-0.7zM527.3 492.2c-4.1 5.4-10.1 9.3-17.2 10.6-0.7 0.1-1.5 0.2-2.2 0.3-1.2 0.1-2.4 0.2-3.5 0.2-27.9 1.3-56.4 4.5-85.1 9.8-69.5 12.8-133.8 36.1-186.6 67.4-1.3 0.8-5 3.1-5.6 3.5-1 0.7-2.1 1.3-3.2 1.8-2.2 1.1-4.6 1.9-7.1 2.3-8.6 1.6-17.1-1-23.3-6.2-4.8-4-8.2-9.7-9.4-16.3-1.2-6.6 0-13.1 3-18.6 2.1-3.7 5-7 8.5-9.5 0.8-0.6 1.7-1.1 2.6-1.6 59.8-36.5 132.5-63.5 211-77.9 30.9-5.7 61.8-9.2 92-10.6 1.9-0.3 3.8-0.3 5.6-0.2 4.7 0.3 9.2 1.7 13.1 4.2 6.5 4 11.3 10.7 12.8 18.8s-0.7 15.9-5.4 22z"  horiz-adv-x="1024" />

    
    <glyph glyph-name="no-checked" unicode="&#58933;" d="M512-122.88c-279.552 0-506.88 227.328-506.88 506.88S232.448 890.88 512 890.88s506.88-227.328 506.88-506.88-227.328-506.88-506.88-506.88zM512 885.76c276.48 0 501.76-225.28 501.76-501.76s-225.28-501.76-501.76-501.76-501.76 225.28-501.76 501.76S235.52 885.76 512 885.76m0 10.24C229.376 896 0 666.624 0 384s229.376-512 512-512 512 229.376 512 512S794.624 896 512 896z"  horiz-adv-x="1024" />

    
    <glyph glyph-name="left" unicode="&#58946;" d="M725.6256 884.423111L240.2496 416.796444a41.130667 41.130667 0 0 1 0-59.477333l485.319111-467.626667a41.301333 41.301333 0 1 1 57.400889 59.448889L328.541156 387.043556 782.998044 824.832A41.415111 41.415111 0 0 1 754.269156 896c-10.296889 0-20.593778-3.868444-28.672-11.576889z"  horiz-adv-x="1024" />

    
    <glyph glyph-name="kefu" unicode="&#58882;" d="M516.017 90.19c4.968 0 10.027 0.304 15.115 0.91 48.799 5.857 90.237 39.965 105.534 86.97 1.151 3.52-0.515 7.283-3.877 8.83-3.333 1.547-7.361 0.212-9.24-2.943-0.18-0.304-19.567-31.62-95.052-41.816-11.298-1.517-22.294-2.306-32.714-2.306-52.889 0.03-76.455 19.966-76.667 20.149-2.665 2.367-6.725 2.427-9.45 0.12-2.756-2.306-3.393-6.31-1.515-9.376 23.021-37.324 64.337-60.538 107.866-60.538z m405.87 467.801c-0.666 0-1.272-0.121-1.908-0.121C875.754 749.348 706.76 892.182 504.143 892.182c-208.19 0-381.06-150.725-419.38-350.122-37.257-6.706-65.61-39.449-65.61-79.05v-158.493c0-44.425 35.623-80.445 79.605-80.445 24.809 0 46.71 11.713 61.28 29.709 35.196-93.096 106.862-168.168 197.549-207.77 0.217 0.473 1.935 3.81 3.998 6.469 1.43 1.844 3.027 3.359 4.4 3.359 1.425 0 2.728-0.516 3.848-1.305-20.993 15.628-96.81 95.951-113.228 208.046-7.21 49.342 29.745 97.772 72.79 105.784 69.093 12.866 137.824 27.522 206.918 40.146 43.922 8.011 73.94 32.105 92.297 72.22 4.3 9.378 10.511 28.343 13.36 55.684 0.756 4.066 4.088 7.192 8.36 7.192 2.848 0 5.27-1.456 6.876-3.55l1.909 1.183c27.231-39.54 81.24-127.085 88.995-219.395 8.905-105.54 3.937-177.823-76.848-251.774-0.091-0.09-0.212-0.212-0.333-0.304a6.623 6.623 0 0 1-1.788-4.52c0-2.277 1.212-4.22 2.97-5.402 0.665-0.274 1.332-0.637 1.998-0.91 0.545-0.122 1.06-0.304 1.606-0.304s1.03 0.181 1.515 0.303c1.151 0.607 2.241 1.306 3.362 1.912 81.695 45.003 144.367 120.167 173.325 210.565 11.722-17.418 30.079-29.95 51.404-34.32-34.199-155.55-172.932-252.896-344.804-267.675-10.299 25.55-35.653 43.698-65.428 43.698-38.894 0-70.427-30.8-70.427-68.762s31.532-68.732 70.427-68.732c31.35 0 57.614 20.149 66.731 47.823 198.951 16.175 358.434 134.43 391.725 318.17 29.412 12.29 50.07 41.148 50.07 74.83V476.819c-0.002 44.82-36.595 81.173-81.727 81.173z m-73.395-46.064c-51.888 140.558-186.35 240.97-344.53 240.97-157.514 0-291.49-99.562-343.864-239.21-2.605 3.187-5.665 5.917-8.664 8.679C181.09 692.542 327.547 821.933 504.144 821.933c175.749 0 321.751-128.116 352.376-297.11-3.03-4.066-5.817-8.315-8.028-12.896z m-490.897-465.92l-0.01 0.004c-0.032-0.073-0.033-0.083 0.01-0.004z"  horiz-adv-x="1024" />

    
    <glyph glyph-name="suo" unicode="&#58921;" d="M872.135593-86.345763H158.80678c-32.976271 0-59.010169 26.033898-59.01017 59.01017V479.457627c0 32.976271 26.033898 59.010169 59.01017 59.01017h88.515254v59.010169c0 173.559322 95.457627 269.016949 267.281356 269.016949S781.884746 771.037288 781.884746 597.477966v-59.010169h88.515254c32.976271 0 59.010169-26.033898 59.010169-59.01017v-506.79322c1.735593-32.976271-24.298305-59.010169-57.274576-59.01017z m-149.261017 685.559322c0 140.583051-67.688136 208.271186-208.271186 208.271187s-208.271186-69.423729-208.271187-208.271187v-59.010169h416.542373v59.010169z m149.261017-149.261017c0 17.355932-12.149153 29.505085-29.505085 29.505085H188.311864c-17.355932 0-29.505085-12.149153-29.505084-29.505085v-447.78305c0-17.355932 12.149153-29.505085 29.505084-29.505085h654.318644c17.355932 0 29.505085 12.149153 29.505085 29.505085V449.952542z m-328.027118-295.050847v-107.60678c0-8.677966-5.20678-15.620339-15.620339-15.620339h-29.505085c-8.677966 0-15.620339 5.20678-15.620339 15.620339v107.60678c-67.688136 15.620339-88.515254 57.274576-88.515254 116.284746 0 65.952542 53.80339 119.755932 119.755932 119.755932s119.755932-53.80339 119.755932-119.755932c0-59.010169-20.827119-100.664407-90.250847-116.284746z m-29.505085 175.294915c-32.976271 0-59.010169-26.033898-59.01017-59.010169s26.033898-59.010169 59.01017-59.01017S573.613559 238.210169 573.613559 271.186441s-26.033898 59.010169-59.010169 59.010169z m0 0"  horiz-adv-x="1024" />

    
    <glyph glyph-name="gouwuche" unicode="&#58881;" d="M367.1 145.5q17.1 0 32.4-6.3t27-17.55 18-26.55 6.3-32.4-6.3-32.4-18-26.55-27-18-32.4-6.75q-18 0-32.85 6.75t-26.55 18-18 26.55-6.3 32.4 6.3 32.4 18 26.55 26.55 17.55 32.85 6.3zM741.5 143.70000000000005q17.1 0 32.85-6.3t27-17.55 18-26.55 6.75-32.4-6.75-32.4-18-26.55-27-18-32.85-6.75-32.4 6.75-26.55 18-18 26.55-6.75 32.4 6.75 32.4 18 26.55 26.55 17.55 32.4 6.3zM892.7 654.9q25.2 0 39.15-6.75t19.8-16.65 5.4-21.15-3.15-19.35-11.25-33.3-19.35-55.35-21.15-59.85-15.75-46.8q-11.7-36-29.7-49.95t-44.1-13.95l-30.6 0-58.5 0-76.5 0-83.7 0-223.2 0 13.5-81 453.6 0q43.2 0 43.2-36.9 0-18-8.55-31.05t-33.75-13.05l-43.2 0-83.7 0-103.5 0-105.3 0-86.4 0-49.5 0q-18 0-30.15 8.1t-20.25 21.15-13.05 28.35-7.65 28.8q-0.9 5.4-4.95 26.1t-9.9 51.75-13.05 69.3-14.4 76.95q-17.1 90.9-38.7 202.5l-67.5 0q-13.5 0-22.5 6.75t-14.85 16.2-8.1 20.25-2.25 19.8q0 18 12.15 29.7t32.85 11.7l19.8 0 18 0 22.5 0 30.6 0q18 0 28.8-5.4t17.1-13.5 9-17.1 4.5-15.3q1.8-7.2 3.6-20.25t3.6-26.55q2.7-16.2 5.4-34.2l615.6 0z"  horiz-adv-x="1024" />

    
    <glyph glyph-name="like" unicode="&#58948;" d="M519.4-45.10000000000002L123.7 350.6l413.7 413.7c109.3 109.3 286.4 109.3 395.7 0 109.3-109.3 109.3-286.4 0-395.7L519.4-45.10000000000002zM902.3 337.9L506.6-57.799999999999955 93 355.9C-16.3 465.2-16.3 642.3 93 751.6c109.3 109.3 286.4 109.3 395.7 0l413.6-413.7z"  horiz-adv-x="1024" />

    
    <glyph glyph-name="edit" unicode="&#59094;" d="M866.143-116H168.481c-36.113 0-73.705 15.891-102.153 44.34C37.879-43.206 21-6.604 21 29.51V754.677c0 37.278 17.582 71.745 48.485 95.866C96.588 871.7 132.109 884 168.487 884h378.627c18.994 0 34.39-15.529 34.39-34.522 0-18.992-15.396-34.52-34.39-34.52H168.481c-37.31 0-78.438-23.684-78.438-60.28V29.51c0-37.706 40.732-76.466 78.438-76.466h697.662c36.593 0 58.2 39.15 58.2 76.466V403.554c0 18.992 15.528 34.39 34.52 34.39 18.994 0 34.522-15.398 34.522-34.39V29.51c0-36.377-11.262-70.91-32.419-98.013-24.121-30.909-57.55-47.497-94.823-47.497zM498.552 336.352c-11.151 0-22.298 4.255-30.804 12.761-17.01 17.01-17.01 44.587 0 61.597L927.774 870.736c17.011 17.006 44.587 17.006 61.597 0 17.011-17.012 17.011-44.592 0-61.603l-460.02-460.02c-8.505-8.506-19.658-12.76-30.799-12.76z"  horiz-adv-x="1024" />

    
    <glyph glyph-name="delete" unicode="&#58974;" d="M832-32V512c0 19.2 12.8 32 32 32s32-12.8 32-32v-576c0-19.2-12.8-32-32-32H160c-19.2 0-32 12.8-32 32V512c0 19.2 12.8 32 32 32s32-12.8 32-32v-544h640zM96 608C76.8 608 64 620.8 64 640s12.8 32 32 32h832c19.2 0 32-12.8 32-32s-12.8-32-32-32H96zM384 800V768c0-19.2-12.8-32-32-32s-32 12.8-32 32V832c0 19.2 12.8 32 32 32h320c19.2 0 32-12.8 32-32v-64c0-19.2-12.8-32-32-32s-32 12.8-32 32v32h-256zM320 512c0 19.2 12.8 32 32 32s32-12.8 32-32v-320c0-19.2-12.8-32-32-32s-32 12.8-32 32V512zM480 512c0 19.2 12.8 32 32 32s32-12.8 32-32v-320c0-19.2-12.8-32-32-32S480 172.79999999999995 480 192V512zM640 512c0 19.2 12.8 32 32 32s32-12.8 32-32v-320c0-19.2-12.8-32-32-32s-32 12.8-32 32V512z"  horiz-adv-x="1024" />

    
    <glyph glyph-name="address" unicode="&#58985;" d="M880.68 454.12c0-106.35-39.89-202.74-106.36-272.54L539-65.78999999999996a33.07 33.07 0 0 0-47.9 0L255.82 181.58000000000004c-66.47 69.8-106.36 166.19-106.36 272.54 0 212.72 162.86 385.55 365.61 385.55s365.61-172.83 365.61-385.55zM515.07 710c-136.27 0-242.63-116.28-242.63-255.88 0-59.77 19.5-117.1 52.24-161.56a23.3 23.3 0 0 1 35.66-2.11l98.15 103.77a0.09 0.09 0 0 1 0 0.14c-27.25 20.48-44 54.94-43.08 92.62 1.38 57 48.27 103 105.18 99.94 53.78-2.91 94.2-48.23 94.2-102.88 0-36.52-16.58-66.41-43.12-86.36a0.09 0.09 0 0 1 0-0.14l98.21-103.84a23.29 23.29 0 0 1 35.56 2c32.75 43.82 52.26 99.13 52.26 161.77C757.7 597 648 710 515.07 710z m0 0"  horiz-adv-x="1024" />

    
    <glyph glyph-name="express" unicode="&#58969;" d="M974 727.1H474c-27.6 0-50-22.4-50-50v-122H199.4c-12.8 0-25.1-5.2-34.4-14.7L15.6 389C5.6 378.9 0 364.9 0 350.2v-169.6c0-29.5 25.3-53.5 56.5-53.5h59.4c11.5-49.4 55.9-86.2 108.8-86.2s97.3 36.8 108.8 86.2h89c9.7 0 18.9 2.3 26.9 6.5 7.3-4.1 15.6-6.5 24.6-6.5h171.5c11.5-49.4 55.9-86.2 108.8-86.2s97.3 36.8 108.8 86.2H974c27.6 0 50 22.4 50 50v500c0 27.6-22.4 50-50 50z m-771.5-227h67.1v-140c0-4.1-3.4-7.5-7.5-7.5H56.9l145.6 147.5z m22.2-404.2c-31.3 0-56.7 25.4-56.7 56.7s25.4 56.7 56.7 56.7c31.3 0 56.7-25.4 56.7-56.7s-25.4-56.7-56.7-56.7z m107.8 86.2c-12.9 47.4-56.3 82.2-107.8 82.2s-94.9-34.8-107.8-82.2H56.5c-0.7 0-1.1 0.1-1.5 0.2V307.6h207.1c28.9 0 52.5 23.6 52.5 52.5v140h107.9c0.7 0 1.1-0.1 1.5-0.2v-317.5c-0.3-0.1-0.8-0.2-1.5-0.2h-90z m421.8-86.2c-31.3 0-56.7 25.4-56.7 56.7s25.4 56.7 56.7 56.7 56.7-25.4 56.7-56.7-25.4-56.7-56.7-56.7zM969 182.1H862.1c-12.9 47.4-56.3 82.2-107.8 82.2s-94.9-34.8-107.8-82.2H479v490h490v-490zM625 540.6c0 15.2 12.3 27.5 27.5 27.5h142c15.2 0 27.5-12.3 27.5-27.5s-12.3-27.5-27.5-27.5h-142c-15.2 0-27.5 12.3-27.5 27.5z m-60-187c0 15.2 12.3 27.5 27.5 27.5h142c15.2 0 27.5-12.3 27.5-27.5s-12.3-27.5-27.5-27.5h-142c-15.2 0-27.5 12.3-27.5 27.5z m126.5 117.5h238c15.2 0 27.5-12.3 27.5-27.5s-12.3-27.5-27.5-27.5h-238c-15.2 0-27.5 12.3-27.5 27.5s12.3 27.5 27.5 27.5z"  horiz-adv-x="1024" />

    
    <glyph glyph-name="right" unicode="&#59038;" d="M298.3744-116.42311100999996L783.7504 351.20355600000005a41.130667 41.130667 0 0 1 0 59.477333l-485.319111 467.626667a41.301333 41.301333 0 1 1-57.400889-59.448889L695.458844 380.95644400000003 241.001956-56.831999989999986A41.415111 41.415111 0 0 1 269.730844-128c10.296889 0 20.593778 3.868444 28.672 11.576889z"  horiz-adv-x="1024" />

    
    <glyph glyph-name="drop-up" unicode="&#59039;" d="M123.42 165.97299999999996a31.289 31.289 0 0 1 45.71 0L512 528.441 855.068 165.97299999999996a31.289 31.289 0 0 1 45.71 0 35.584 35.584 0 0 1 1e-8 48.356l-365.76600001 386.645a31.289 31.289 0 0 1-45.74 0L123.42 214.29999999999995a35.47 35.47 0 0 1 0-48.355z"  horiz-adv-x="1024" />

    


  </font>
</defs>
</svg>
